<?xml version="1.0" standalone="no"?>
<!DOCTYPE svg PUBLIC "-//W3C//DTD SVG 20010904//EN"
 "http://www.w3.org/TR/2001/REC-SVG-20010904/DTD/svg10.dtd">
<svg version="1.0" xmlns="http://www.w3.org/2000/svg"
 width="162.000000pt" height="162.000000pt" viewBox="0 0 162.000000 162.000000"
 preserveAspectRatio="xMidYMid meet">
<metadata>
Created by potrace 1.14, written by Peter Selinger 2001-2017
</metadata>
<g transform="translate(0.000000,162.000000) scale(0.100000,-0.100000)"
fill="#000000" stroke="none">
<path d="M0 810 l0 -810 810 0 810 0 0 810 0 810 -810 0 -810 0 0 -810z m1050
723 c0 -39 -4 -45 -72 -103 -86 -73 -188 -183 -251 -272 -41 -58 -181 -294
-190 -321 -2 -7 -31 13 -65 44 -33 31 -94 78 -136 104 -42 27 -76 54 -76 60 0
6 13 24 30 40 l29 28 57 -44 c31 -24 78 -67 103 -96 25 -29 49 -53 53 -53 4 0
27 39 52 88 95 182 246 391 381 525 75 73 85 73 85 0z m123 -258 c-85 -70
-224 -208 -279 -277 -72 -89 -168 -239 -238 -370 -32 -60 -60 -108 -63 -108
-3 0 -30 23 -61 51 -32 28 -104 82 -162 121 -58 39 -106 73 -108 77 -1 4 13
25 31 46 l34 40 44 -30 c24 -17 84 -70 133 -118 49 -48 89 -87 91 -85 1 2 23
44 50 93 125 235 310 493 459 639 l101 98 8 -68 8 -69 -48 -40z m347 75 l0
-89 -102 -87 c-286 -244 -492 -506 -694 -884 -48 -91 -89 -166 -90 -168 -1 -1
-28 23 -60 54 -73 71 -177 149 -317 238 -74 47 -105 72 -99 81 15 27 93 105
104 105 24 0 161 -116 264 -222 82 -87 108 -108 115 -97 6 8 30 53 54 101 121
237 326 548 493 748 113 135 306 325 322 315 6 -3 10 -46 10 -95z"/>
</g>
</svg>
